HIERARCHY
ROOT Hips
{
	OFFSET 0.000000 0.000000 0.000000
	CHANNELS 6 Xposition Yposition Zposition Xrotation Yrotation Zrotation
	JOINT LeftUpLeg_virtual
	{
		OFFSET 0.000000 0.000000 0.000000
		CHANNELS 3 Xrotation Yrotation Zrotation
		JOINT LeftUpLeg
		{
			OFFSET 11.394100 -6.187798 -0.413800
			CHANNELS 3 Xrotation Yrotation Zrotation
			JOINT LeftLeg
			{
				OFFSET 0.430247 -32.302673 3.732800
				CHANNELS 3 Xrotation Yrotation Zrotation
				JOINT LeftFoot
				{
					OFFSET -0.430247 -48.264931 -6.423300
					CHANNELS 3 Xrotation Yrotation Zrotation
					JOINT LeftToeBase
					{
						OFFSET 4.230900 -16.068199 23.438400
						CHANNELS 3 Xrotation Yrotation Zrotation
						JOINT LeftToe_End
						{
							OFFSET 4.510700 0.695400 19.974600
							CHANNELS 3 Xrotation Yrotation Zrotation
							End Site
							{
								OFFSET 0 0 0
							}
						}
					}
				}
			}
		}
	}
	JOINT RightUpLeg_virtual
	{
		OFFSET 0.000000 0.000000 0.000000
		CHANNELS 3 Xrotation Yrotation Zrotation
		JOINT RightUpLeg
		{
			OFFSET -11.333700 -6.187798 -0.413800
			CHANNELS 3 Xrotation Yrotation Zrotation
			JOINT RightLeg
			{
				OFFSET -0.430392 -32.302628 3.733000
				CHANNELS 3 Xrotation Yrotation Zrotation
				JOINT RightFoot
				{
					OFFSET 0.430392 -48.264973 -6.423500
					CHANNELS 3 Xrotation Yrotation Zrotation
					JOINT RightToeBase
					{
						OFFSET -4.230900 -16.068199 23.438400
						CHANNELS 3 Xrotation Yrotation Zrotation
						JOINT RightToe_End
						{
							OFFSET -4.510700 0.695400 19.974600
							CHANNELS 3 Xrotation Yrotation Zrotation
							End Site
							{
								OFFSET 0 0 0
							}
						}
					}
				}
			}
		}
	}
	JOINT Spine_virtual
	{
		OFFSET 0.000000 0.000000 0.000000
		CHANNELS 3 Xrotation Yrotation Zrotation
		JOINT Spine
		{
			OFFSET -0.002400 12.777504 0.315300
			CHANNELS 3 Xrotation Yrotation Zrotation
			JOINT Spine1
			{
				OFFSET -0.002067 5.816869 0.032633
				CHANNELS 3 Xrotation Yrotation Zrotation
				JOINT Spine1_split
				{
					OFFSET -0.002067 5.816869 0.032633
					CHANNELS 3 Xrotation Yrotation Zrotation
					JOINT Spine2
					{
						OFFSET -0.002067 5.816869 0.032633
						CHANNELS 3 Xrotation Yrotation Zrotation
						JOINT Neck_virtual
						{
							OFFSET 0.000000 0.000000 0.000000
							CHANNELS 3 Xrotation Yrotation Zrotation
							JOINT Neck
							{
								OFFSET -0.003700 21.199493 -0.826900
								CHANNELS 3 Xrotation Yrotation Zrotation
								JOINT Head
								{
									OFFSET 0.000000 20.442200 4.834800
									CHANNELS 3 Xrotation Yrotation Zrotation
									JOINT HeadTop_End
									{
										OFFSET 0.000000 34.668396 4.968400
										CHANNELS 3 Xrotation Yrotation Zrotation
										End Site
										{
											OFFSET 0 0 0
										}
									}
								}
							}
						}
						JOINT LeftShoulder_virtual
						{
							OFFSET 0.000000 0.000000 0.000000
							CHANNELS 3 Xrotation Yrotation Zrotation
							JOINT LeftShoulder
							{
								OFFSET 3.288150 8.794197 -1.372250
								CHANNELS 3 Xrotation Yrotation Zrotation
								JOINT LeftShoulder_split
								{
									OFFSET 3.288150 8.794197 -1.372250
									CHANNELS 3 Xrotation Yrotation Zrotation
									JOINT LeftArm
									{
										OFFSET 11.953299 -2.279007 -0.146200
										CHANNELS 3 Xrotation Yrotation Zrotation
										JOINT LeftForeArm
										{
											OFFSET 18.448900 0.000000 0.000000
											CHANNELS 3 Xrotation Yrotation Zrotation
											JOINT LeftHand
											{
												OFFSET 29.527798 0.000000 0.000000
												CHANNELS 3 Xrotation Yrotation Zrotation
												End Site
												{
													OFFSET 0 0 0
												}
											}
										}
									}
								}
							}
						}
						JOINT RightShoulder_virtual
						{
							OFFSET 0.000000 0.000000 0.000000
							CHANNELS 3 Xrotation Yrotation Zrotation
							JOINT RightShoulder
							{
								OFFSET -3.249400 8.794197 -1.372250
								CHANNELS 3 Xrotation Yrotation Zrotation
								JOINT RightShoulder_split
								{
									OFFSET -3.249400 8.794197 -1.372250
									CHANNELS 3 Xrotation Yrotation Zrotation
									JOINT RightArm
									{
										OFFSET -11.953299 -2.279007 -0.146200
										CHANNELS 3 Xrotation Yrotation Zrotation
										JOINT RightForeArm
										{
											OFFSET -18.448900 0.000000 0.000000
											CHANNELS 3 Xrotation Yrotation Zrotation
											JOINT RightHand
											{
												OFFSET -29.527802 0.000000 0.000000
												CHANNELS 3 Xrotation Yrotation Zrotation
												End Site
												{
													OFFSET 0 0 0
												}
											}
										}
									}
								}
							}
						}
					}
				}
			}
		}
	}
}
MOTION
Frames: 4
Frame Time: 0.03333333
0.020398 88.807480 0.945484 0.000000 0.000000 0.000000 -0.260186 -61.358157 3.933548 -35.020354 10.467619 25.168356 39.576766 -3.758911 -8.816399 -4.529846 -4.095793 -7.634879 0.395766 0.345857 1.790776 0.000000 0.000000 0.000000 -3.964846 -60.134351 2.202083 -32.413298 -11.022154 -24.409021 40.697481 0.178235 -8.042482 -10.778825 4.642791 22.481353 -1.874806 0.307940 -0.272544 0.000000 0.000000 0.000000 -3.917432 -61.175484 0.286645 12.588603 2.394364 -2.673797 8.113558 0.739177 -5.561407 0.178351 0.079813 1.099416 0.000000 0.000000 0.000000 8.056537 0.359449 -4.371272 -20.961656 20.696595 9.538881 2.893551 27.082468 -2.089792 0.000000 0.000000 0.000000 10.009675 0.308432 -4.928762 -5.171684 -16.158916 -1.619863 -1.850357 -3.756941 1.247313 -23.916879 9.429242 -32.539725 4.103377 -42.044732 0.418915 0.000000 0.000000 0.000000 9.389581 0.607938 -5.383428 -5.425562 14.280244 1.766855 3.401001 -3.127248 3.427806 -32.573613 -22.602541 35.561793 164.372177 69.640588 -161.379680 0.000000 0.000000 0.000000 
-0.479491 88.581039 1.265556 0.000000 0.000000 0.000000 -0.747612 -61.229600 3.474150 -34.901468 11.079431 25.454940 40.121928 -4.534460 -8.733877 -5.372037 -4.271914 -8.028421 -0.112164 0.283929 2.052810 0.000000 0.000000 0.000000 -4.398094 -60.099859 1.648288 -32.129893 -10.561507 -24.523635 41.926553 0.106099 -7.994678 -11.668237 4.386943 21.564584 -0.098762 0.325064 -0.128883 0.000000 0.000000 0.000000 -4.087968 -61.160738 0.167405 12.634773 2.203672 -2.614593 7.854779 0.733461 -5.574326 -0.651832 -0.652878 1.664953 0.000000 0.000000 0.000000 7.766110 0.349820 -4.383402 -20.964127 20.102107 9.841544 3.226670 26.116202 -2.037373 0.000000 0.000000 0.000000 9.730871 0.325654 -4.921499 -5.163841 -15.907864 -1.574443 -0.391871 -5.092942 0.958380 -25.301384 9.366884 -33.606184 5.376757 -41.778792 1.531120 0.000000 0.000000 0.000000 9.006422 0.605885 -5.342511 -5.503711 14.184542 1.658267 4.729586 -2.689523 1.597421 -30.956586 -21.884587 35.486733 166.648993 66.397089 -163.663449 0.000000 0.000000 0.000000 
-1.304632 88.331322 1.695271 0.000000 0.000000 0.000000 -2.095665 -61.108897 2.114664 -34.555802 11.424684 25.864294 41.279297 -5.520571 -8.559822 -6.958415 -4.117332 -8.369612 -0.668160 0.316002 2.205871 0.000000 0.000000 0.000000 -5.256043 -60.032589 0.458950 -30.982015 -9.900252 -24.737668 43.370141 0.294795 -7.965029 -12.571437 4.044453 21.369266 0.166328 0.137930 0.003056 0.000000 0.000000 0.000000 -4.986461 -60.894333 -0.796413 12.524573 2.082242 -2.336086 7.457761 0.775391 -5.345578 -0.801489 -0.725007 2.081287 0.000000 0.000000 0.000000 7.283073 0.354499 -4.236723 -20.047589 19.060903 10.094062 3.263795 24.611407 -1.512063 0.000000 0.000000 0.000000 9.209825 0.371926 -4.668693 -5.100082 -14.782061 -1.052794 0.503839 -5.623368 0.350270 -25.330472 9.745530 -32.880100 6.608338 -44.467561 3.134880 0.000000 0.000000 0.000000 8.402967 0.566738 -5.090149 -5.537469 12.882795 0.783563 6.419373 -2.332544 0.444077 -25.463201 -20.379095 35.796403 162.810495 62.639870 -160.238369 0.000000 0.000000 0.000000 
-2.340078 88.243362 2.115509 0.000000 0.000000 0.000000 -4.032162 -60.971856 0.129685 -33.674434 11.453665 26.101035 42.326194 -6.527995 -8.264581 -8.778251 -3.662542 -8.545342 -1.390619 0.430488 2.248722 0.000000 0.000000 0.000000 -6.365071 -59.706973 -1.093532 -28.702763 -9.356339 -24.985474 44.068739 0.615347 -7.917189 -13.344112 3.559343 21.645059 -0.663705 -0.197021 0.201241 0.000000 0.000000 0.000000 -6.214294 -60.260662 -2.283643 12.297090 2.028358 -1.940255 6.976784 0.837971 -4.909428 -0.143436 -0.213569 2.293843 0.000000 0.000000 0.000000 6.682166 0.390571 -3.926754 -18.300831 17.727549 10.291587 3.108999 22.931334 -0.748746 0.000000 0.000000 0.000000 8.474094 0.461403 -4.166896 -5.054767 -12.711426 -0.104664 0.861897 -5.444207 -0.007062 -23.628978 11.124330 -30.275363 7.628775 -50.207081 4.974172 0.000000 0.000000 0.000000 7.643689 0.502146 -4.643397 -5.626657 10.390062 -0.713588 7.719152 -2.099474 -0.278726 -17.602883 -18.540692 36.592387 155.284815 59.603461 -153.583975 0.000000 0.000000 0.000000 
